<svg xmlns="http://www.w3.org/2000/svg" xmlns:xlink="http://www.w3.org/1999/xlink" width="500" zoomAndPan="magnify" viewBox="0 0 375 374.999991" height="500" preserveAspectRatio="xMidYMid meet" version="1.2"><defs><clipPath id="46eadc4032"><path d="M 144 64.515625 L 231 64.515625 L 231 214.515625 L 144 214.515625 Z M 144 64.515625 "/></clipPath></defs><g id="ade7b72fa3"><rect x="0" width="375" y="0" height="374.999991" style="fill:#ffffff;fill-opacity:1;stroke:none;"/><rect x="0" width="375" y="0" height="374.999991" style="fill:#ffffff;fill-opacity:1;stroke:none;"/><g clip-rule="nonzero" clip-path="url(#46eadc4032)"><path style=" stroke:none;fill-rule:nonzero;fill:#000000;fill-opacity:1;" d="M 217.507812 71.121094 C 217.1875 70.949219 216.867188 70.777344 216.554688 70.597656 C 214.808594 69.597656 206.273438 65.097656 193.03125 64.570312 L 182.164062 64.570312 C 168.917969 65.097656 160.386719 69.597656 158.640625 70.597656 C 158.324219 70.777344 158.007812 70.949219 157.683594 71.121094 C 141.484375 79.84375 143.375 100.042969 146.308594 115.851562 C 149.28125 131.859375 164.011719 149.644531 164.011719 149.644531 L 182.457031 172.652344 C 181.878906 172.941406 181.476562 173.539062 181.476562 174.230469 L 181.476562 212.683594 C 181.476562 213.65625 182.269531 214.441406 183.242188 214.441406 L 191.953125 214.441406 C 192.925781 214.441406 193.714844 213.65625 193.714844 212.683594 L 193.714844 206.734375 C 191.402344 208.292969 188.6875 209.144531 186.132812 208.703125 C 186.132812 208.703125 186.089844 208.523438 186.089844 208.523438 C 188.902344 207.707031 191.429688 206.195312 193.71875 204.382812 L 193.71875 199.027344 C 191.40625 200.585938 188.691406 201.4375 186.136719 200.996094 C 186.136719 200.996094 186.089844 200.816406 186.089844 200.816406 C 188.90625 200 191.429688 198.488281 193.722656 196.675781 L 193.722656 191.320312 C 191.410156 192.878906 188.695312 193.730469 186.140625 193.289062 C 186.140625 193.289062 186.09375 193.109375 186.09375 193.109375 C 188.910156 192.292969 191.433594 190.78125 193.726562 188.96875 L 193.726562 183.613281 C 191.414062 185.171875 188.699219 186.023438 186.140625 185.582031 C 186.140625 185.582031 186.097656 185.402344 186.097656 185.402344 C 188.914062 184.585938 191.4375 183.074219 193.730469 181.261719 L 193.730469 174.230469 C 193.730469 173.539062 193.332031 172.941406 192.75 172.652344 L 211.195312 149.644531 C 211.195312 149.644531 225.925781 131.859375 228.894531 115.851562 C 231.832031 100.042969 233.722656 79.84375 217.523438 71.121094 Z M 156.097656 111.648438 C 155.046875 111.648438 154.191406 110.796875 154.191406 109.746094 C 154.191406 108.691406 155.042969 107.84375 156.097656 107.84375 C 157.152344 107.84375 158.003906 108.691406 158.003906 109.746094 C 158.003906 110.796875 157.152344 111.648438 156.097656 111.648438 Z M 156.097656 105.125 C 155.046875 105.125 154.191406 104.273438 154.191406 103.222656 C 154.191406 102.167969 155.042969 101.320312 156.097656 101.320312 C 157.152344 101.320312 158.003906 102.167969 158.003906 103.222656 C 158.003906 104.273438 157.152344 105.125 156.097656 105.125 Z M 156.097656 98.605469 C 155.046875 98.605469 154.191406 97.753906 154.191406 96.703125 C 154.191406 95.648438 155.042969 94.800781 156.097656 94.800781 C 157.152344 94.800781 158.003906 95.648438 158.003906 96.703125 C 158.003906 97.753906 157.152344 98.605469 156.097656 98.605469 Z M 211.835938 88.039062 C 212.886719 88.039062 213.742188 88.890625 213.742188 89.941406 C 213.742188 90.996094 212.890625 91.84375 211.835938 91.84375 C 210.78125 91.84375 209.929688 90.996094 209.929688 89.941406 C 209.929688 88.890625 210.78125 88.039062 211.835938 88.039062 Z M 204.792969 81.285156 C 205.84375 81.285156 206.699219 82.136719 206.699219 83.1875 C 206.699219 84.238281 205.847656 85.089844 204.792969 85.089844 C 203.738281 85.089844 202.886719 84.238281 202.886719 83.1875 C 202.886719 82.136719 203.738281 81.285156 204.792969 81.285156 Z M 206.777344 89.941406 C 206.777344 90.992188 205.925781 91.84375 204.871094 91.84375 C 203.820312 91.84375 202.964844 90.996094 202.964844 89.941406 C 202.964844 88.890625 203.820312 88.039062 204.871094 88.039062 C 205.925781 88.039062 206.777344 88.890625 206.777344 89.941406 Z M 197.863281 81.285156 C 198.914062 81.285156 199.769531 82.136719 199.769531 83.1875 C 199.769531 84.238281 198.917969 85.089844 197.863281 85.089844 C 196.808594 85.089844 195.957031 84.238281 195.957031 83.1875 C 195.957031 82.136719 196.808594 81.285156 197.863281 81.285156 Z M 199.816406 89.941406 C 199.816406 90.992188 198.964844 91.84375 197.910156 91.84375 C 196.855469 91.84375 196.003906 90.996094 196.003906 89.941406 C 196.003906 88.890625 196.855469 88.039062 197.910156 88.039062 C 198.964844 88.039062 199.816406 88.890625 199.816406 89.941406 Z M 190.984375 124.6875 C 189.933594 124.6875 189.078125 123.839844 189.078125 122.785156 C 189.078125 121.734375 189.929688 120.882812 190.984375 120.882812 C 192.039062 120.882812 192.890625 121.734375 192.890625 122.785156 C 192.890625 123.839844 192.039062 124.6875 190.984375 124.6875 Z M 192.890625 129.308594 C 192.890625 130.359375 192.039062 131.210938 190.984375 131.210938 C 189.929688 131.210938 189.078125 130.363281 189.078125 129.308594 C 189.078125 128.257812 189.929688 127.40625 190.984375 127.40625 C 192.039062 127.40625 192.890625 128.257812 192.890625 129.308594 Z M 190.984375 118.167969 C 189.933594 118.167969 189.078125 117.320312 189.078125 116.265625 C 189.078125 115.214844 189.929688 114.363281 190.984375 114.363281 C 192.039062 114.363281 192.890625 115.214844 192.890625 116.265625 C 192.890625 117.320312 192.039062 118.167969 190.984375 118.167969 Z M 190.984375 111.648438 C 189.933594 111.648438 189.078125 110.796875 189.078125 109.746094 C 189.078125 108.691406 189.929688 107.84375 190.984375 107.84375 C 192.039062 107.84375 192.890625 108.691406 192.890625 109.746094 C 192.890625 110.796875 192.039062 111.648438 190.984375 111.648438 Z M 190.984375 105.125 C 189.933594 105.125 189.078125 104.273438 189.078125 103.222656 C 189.078125 102.167969 189.929688 101.320312 190.984375 101.320312 C 192.039062 101.320312 192.890625 102.167969 192.890625 103.222656 C 192.890625 104.273438 192.039062 105.125 190.984375 105.125 Z M 190.953125 98.605469 C 189.902344 98.605469 189.046875 97.753906 189.046875 96.703125 C 189.046875 95.648438 189.902344 94.800781 190.953125 94.800781 C 192.007812 94.800781 192.859375 95.648438 192.859375 96.703125 C 192.859375 97.753906 192.007812 98.605469 190.953125 98.605469 Z M 190.953125 91.84375 C 189.902344 91.84375 189.046875 90.996094 189.046875 89.941406 C 189.046875 88.890625 189.898438 88.039062 190.953125 88.039062 C 192.003906 88.039062 192.859375 88.890625 192.859375 89.941406 C 192.859375 90.996094 192.003906 91.84375 190.953125 91.84375 Z M 190.9375 81.285156 C 191.988281 81.285156 192.84375 82.136719 192.84375 83.1875 C 192.84375 84.238281 191.988281 85.089844 190.9375 85.089844 C 189.882812 85.089844 189.03125 84.238281 189.03125 83.1875 C 189.03125 82.136719 189.882812 81.285156 190.9375 81.285156 Z M 184.003906 81.285156 C 185.054688 81.285156 185.910156 82.136719 185.910156 83.1875 C 185.910156 84.238281 185.058594 85.089844 184.003906 85.089844 C 182.953125 85.089844 182.097656 84.238281 182.097656 83.1875 C 182.097656 82.136719 182.953125 81.285156 184.003906 81.285156 Z M 183.988281 88.039062 C 185.039062 88.039062 185.894531 88.890625 185.894531 89.941406 C 185.894531 90.996094 185.042969 91.84375 183.988281 91.84375 C 182.933594 91.84375 182.082031 90.996094 182.082031 89.941406 C 182.082031 88.890625 182.933594 88.039062 183.988281 88.039062 Z M 183.984375 94.800781 C 185.035156 94.800781 185.890625 95.648438 185.890625 96.703125 C 185.890625 97.753906 185.039062 98.605469 183.984375 98.605469 C 182.929688 98.605469 182.078125 97.753906 182.078125 96.703125 C 182.078125 95.648438 182.929688 94.800781 183.984375 94.800781 Z M 183.957031 101.324219 C 185.007812 101.324219 185.863281 102.171875 185.863281 103.226562 C 185.863281 104.277344 185.011719 105.128906 183.957031 105.128906 C 182.902344 105.128906 182.050781 104.277344 182.050781 103.226562 C 182.050781 102.171875 182.902344 101.324219 183.957031 101.324219 Z M 183.957031 107.84375 C 185.007812 107.84375 185.863281 108.691406 185.863281 109.746094 C 185.863281 110.796875 185.011719 111.648438 183.957031 111.648438 C 182.902344 111.648438 182.050781 110.796875 182.050781 109.746094 C 182.050781 108.691406 182.902344 107.84375 183.957031 107.84375 Z M 183.957031 114.363281 C 185.007812 114.363281 185.863281 115.214844 185.863281 116.265625 C 185.863281 117.320312 185.011719 118.167969 183.957031 118.167969 C 182.902344 118.167969 182.050781 117.320312 182.050781 116.265625 C 182.050781 115.214844 182.902344 114.363281 183.957031 114.363281 Z M 183.957031 120.886719 C 185.007812 120.886719 185.863281 121.738281 185.863281 122.789062 C 185.863281 123.84375 185.011719 124.691406 183.957031 124.691406 C 182.902344 124.691406 182.050781 123.84375 182.050781 122.789062 C 182.050781 121.738281 182.902344 120.886719 183.957031 120.886719 Z M 183.957031 127.40625 C 185.007812 127.40625 185.863281 128.257812 185.863281 129.308594 C 185.863281 130.363281 185.011719 131.210938 183.957031 131.210938 C 182.902344 131.210938 182.050781 130.363281 182.050781 129.308594 C 182.050781 128.257812 182.902344 127.40625 183.957031 127.40625 Z M 177.074219 81.285156 C 178.125 81.285156 178.980469 82.136719 178.980469 83.1875 C 178.980469 84.238281 178.128906 85.089844 177.074219 85.089844 C 176.019531 85.089844 175.167969 84.238281 175.167969 83.1875 C 175.167969 82.136719 176.019531 81.285156 177.074219 81.285156 Z M 177.050781 118.167969 C 176 118.167969 175.144531 117.320312 175.144531 116.265625 C 175.144531 115.214844 176 114.363281 177.050781 114.363281 C 178.105469 114.363281 178.957031 115.214844 178.957031 116.265625 C 178.957031 117.320312 178.105469 118.167969 177.050781 118.167969 Z M 178.957031 122.785156 C 178.957031 123.835938 178.105469 124.6875 177.050781 124.6875 C 175.996094 124.6875 175.144531 123.839844 175.144531 122.785156 C 175.144531 121.734375 175.996094 120.882812 177.050781 120.882812 C 178.105469 120.882812 178.957031 121.734375 178.957031 122.785156 Z M 177.050781 111.648438 C 176 111.648438 175.144531 110.796875 175.144531 109.746094 C 175.144531 108.691406 176 107.84375 177.050781 107.84375 C 178.105469 107.84375 178.957031 108.691406 178.957031 109.746094 C 178.957031 110.796875 178.105469 111.648438 177.050781 111.648438 Z M 177.050781 105.125 C 176 105.125 175.144531 104.273438 175.144531 103.222656 C 175.144531 102.167969 176 101.320312 177.050781 101.320312 C 178.105469 101.320312 178.957031 102.167969 178.957031 103.222656 C 178.957031 104.273438 178.105469 105.125 177.050781 105.125 Z M 177.027344 88.039062 C 178.078125 88.039062 178.933594 88.890625 178.933594 89.941406 C 178.933594 90.996094 178.082031 91.84375 177.027344 91.84375 C 175.972656 91.84375 175.121094 90.996094 175.121094 89.941406 C 175.121094 88.890625 175.972656 88.039062 177.027344 88.039062 Z M 163.105469 124.6875 C 162.054688 124.6875 161.199219 123.839844 161.199219 122.785156 C 161.199219 121.734375 162.050781 120.882812 163.105469 120.882812 C 164.160156 120.882812 165.011719 121.734375 165.011719 122.785156 C 165.011719 123.839844 164.160156 124.6875 163.105469 124.6875 Z M 161.164062 96.703125 C 161.164062 95.652344 162.015625 94.800781 163.070312 94.800781 C 164.121094 94.800781 164.976562 95.648438 164.976562 96.703125 C 164.976562 97.753906 164.121094 98.605469 163.070312 98.605469 C 162.015625 98.605469 161.164062 97.753906 161.164062 96.703125 Z M 163.105469 118.167969 C 162.054688 118.167969 161.199219 117.320312 161.199219 116.265625 C 161.199219 115.214844 162.050781 114.363281 163.105469 114.363281 C 164.160156 114.363281 165.011719 115.214844 165.011719 116.265625 C 165.011719 117.320312 164.160156 118.167969 163.105469 118.167969 Z M 163.105469 111.648438 C 162.054688 111.648438 161.199219 110.796875 161.199219 109.746094 C 161.199219 108.691406 162.050781 107.84375 163.105469 107.84375 C 164.160156 107.84375 165.011719 108.691406 165.011719 109.746094 C 165.011719 110.796875 164.160156 111.648438 163.105469 111.648438 Z M 163.105469 105.125 C 162.054688 105.125 161.199219 104.273438 161.199219 103.222656 C 161.199219 102.167969 162.050781 101.320312 163.105469 101.320312 C 164.160156 101.320312 165.011719 102.167969 165.011719 103.222656 C 165.011719 104.273438 164.160156 105.125 163.105469 105.125 Z M 163.105469 91.84375 C 162.054688 91.84375 161.199219 90.996094 161.199219 89.941406 C 161.199219 88.890625 162.050781 88.039062 163.105469 88.039062 C 164.160156 88.039062 165.011719 88.890625 165.011719 89.941406 C 165.011719 90.996094 164.160156 91.84375 163.105469 91.84375 Z M 170.039062 94.800781 C 171.089844 94.800781 171.945312 95.648438 171.945312 96.703125 C 171.945312 97.753906 171.09375 98.605469 170.039062 98.605469 C 168.984375 98.605469 168.132812 97.753906 168.132812 96.703125 C 168.132812 95.648438 168.984375 94.800781 170.039062 94.800781 Z M 168.164062 89.941406 C 168.164062 88.894531 169.015625 88.039062 170.070312 88.039062 C 171.121094 88.039062 171.976562 88.890625 171.976562 89.941406 C 171.976562 90.996094 171.121094 91.84375 170.070312 91.84375 C 169.015625 91.84375 168.164062 90.996094 168.164062 89.941406 Z M 170.144531 131.210938 C 169.09375 131.210938 168.238281 130.363281 168.238281 129.308594 C 168.238281 128.257812 169.089844 127.40625 170.144531 127.40625 C 171.199219 127.40625 172.050781 128.257812 172.050781 129.308594 C 172.050781 130.363281 171.199219 131.210938 170.144531 131.210938 Z M 170.144531 124.6875 C 169.09375 124.6875 168.238281 123.839844 168.238281 122.785156 C 168.238281 121.734375 169.089844 120.882812 170.144531 120.882812 C 171.199219 120.882812 172.050781 121.734375 172.050781 122.785156 C 172.050781 123.839844 171.199219 124.6875 170.144531 124.6875 Z M 170.144531 118.167969 C 169.09375 118.167969 168.238281 117.320312 168.238281 116.265625 C 168.238281 115.214844 169.089844 114.363281 170.144531 114.363281 C 171.199219 114.363281 172.050781 115.214844 172.050781 116.265625 C 172.050781 117.320312 171.199219 118.167969 170.144531 118.167969 Z M 170.144531 111.648438 C 169.09375 111.648438 168.238281 110.796875 168.238281 109.746094 C 168.238281 108.691406 169.089844 107.84375 170.144531 107.84375 C 171.199219 107.84375 172.050781 108.691406 172.050781 109.746094 C 172.050781 110.796875 171.199219 111.648438 170.144531 111.648438 Z M 170.144531 105.125 C 169.09375 105.125 168.238281 104.273438 168.238281 103.222656 C 168.238281 102.167969 169.089844 101.320312 170.144531 101.320312 C 171.199219 101.320312 172.050781 102.167969 172.050781 103.222656 C 172.050781 104.273438 171.199219 105.125 170.144531 105.125 Z M 170.144531 85.085938 C 169.09375 85.085938 168.238281 84.234375 168.238281 83.183594 C 168.238281 82.132812 169.089844 81.28125 170.144531 81.28125 C 171.199219 81.28125 172.050781 82.132812 172.050781 83.183594 C 172.050781 84.234375 171.199219 85.085938 170.144531 85.085938 Z M 177.011719 94.800781 C 178.0625 94.800781 178.917969 95.648438 178.917969 96.703125 C 178.917969 97.753906 178.066406 98.605469 177.011719 98.605469 C 175.957031 98.605469 175.105469 97.753906 175.105469 96.703125 C 175.105469 95.648438 175.957031 94.800781 177.011719 94.800781 Z M 175.144531 129.308594 C 175.144531 128.261719 176 127.40625 177.050781 127.40625 C 178.105469 127.40625 178.957031 128.257812 178.957031 129.308594 C 178.957031 130.363281 178.105469 131.210938 177.050781 131.210938 C 176 131.210938 175.144531 130.363281 175.144531 129.308594 Z M 198.921875 153.777344 L 189.410156 166.261719 C 188.5 167.460938 186.695312 167.460938 185.78125 166.261719 L 176.273438 153.777344 C 175.5 152.761719 176.226562 151.304688 177.5 151.304688 L 197.691406 151.304688 C 198.96875 151.304688 199.695312 152.761719 198.921875 153.777344 Z M 197.886719 131.210938 C 196.835938 131.210938 195.980469 130.363281 195.980469 129.308594 C 195.980469 128.257812 196.835938 127.40625 197.886719 127.40625 C 198.941406 127.40625 199.792969 128.257812 199.792969 129.308594 C 199.792969 130.363281 198.941406 131.210938 197.886719 131.210938 Z M 197.886719 124.6875 C 196.835938 124.6875 195.980469 123.839844 195.980469 122.785156 C 195.980469 121.734375 196.835938 120.882812 197.886719 120.882812 C 198.941406 120.882812 199.792969 121.734375 199.792969 122.785156 C 199.792969 123.839844 198.941406 124.6875 197.886719 124.6875 Z M 197.886719 118.167969 C 196.835938 118.167969 195.980469 117.320312 195.980469 116.265625 C 195.980469 115.214844 196.835938 114.363281 197.886719 114.363281 C 198.941406 114.363281 199.792969 115.214844 199.792969 116.265625 C 199.792969 117.320312 198.941406 118.167969 197.886719 118.167969 Z M 197.886719 111.648438 C 196.835938 111.648438 195.980469 110.796875 195.980469 109.746094 C 195.980469 108.691406 196.835938 107.84375 197.886719 107.84375 C 198.941406 107.84375 199.792969 108.691406 199.792969 109.746094 C 199.792969 110.796875 198.941406 111.648438 197.886719 111.648438 Z M 197.886719 105.125 C 196.835938 105.125 195.980469 104.273438 195.980469 103.222656 C 195.980469 102.167969 196.835938 101.320312 197.886719 101.320312 C 198.941406 101.320312 199.792969 102.167969 199.792969 103.222656 C 199.792969 104.273438 198.941406 105.125 197.886719 105.125 Z M 197.929688 98.605469 C 196.878906 98.605469 196.023438 97.753906 196.023438 96.703125 C 196.023438 95.648438 196.875 94.800781 197.929688 94.800781 C 198.984375 94.800781 199.835938 95.648438 199.835938 96.703125 C 199.835938 97.753906 198.984375 98.605469 197.929688 98.605469 Z M 204.792969 131.210938 C 203.742188 131.210938 202.886719 130.363281 202.886719 129.308594 C 202.886719 128.257812 203.738281 127.40625 204.792969 127.40625 C 205.847656 127.40625 206.699219 128.257812 206.699219 129.308594 C 206.699219 130.363281 205.847656 131.210938 204.792969 131.210938 Z M 204.792969 124.6875 C 203.742188 124.6875 202.886719 123.839844 202.886719 122.785156 C 202.886719 121.734375 203.738281 120.882812 204.792969 120.882812 C 205.847656 120.882812 206.699219 121.734375 206.699219 122.785156 C 206.699219 123.839844 205.847656 124.6875 204.792969 124.6875 Z M 204.792969 118.167969 C 203.742188 118.167969 202.886719 117.320312 202.886719 116.265625 C 202.886719 115.214844 203.738281 114.363281 204.792969 114.363281 C 205.847656 114.363281 206.699219 115.214844 206.699219 116.265625 C 206.699219 117.320312 205.847656 118.167969 204.792969 118.167969 Z M 204.792969 111.648438 C 203.742188 111.648438 202.886719 110.796875 202.886719 109.746094 C 202.886719 108.691406 203.738281 107.84375 204.792969 107.84375 C 205.847656 107.84375 206.699219 108.691406 206.699219 109.746094 C 206.699219 110.796875 205.847656 111.648438 204.792969 111.648438 Z M 204.792969 105.125 C 203.742188 105.125 202.886719 104.273438 202.886719 103.222656 C 202.886719 102.167969 203.738281 101.320312 204.792969 101.320312 C 205.847656 101.320312 206.699219 102.167969 206.699219 103.222656 C 206.699219 104.273438 205.847656 105.125 204.792969 105.125 Z M 204.902344 98.605469 C 203.851562 98.605469 202.996094 97.753906 202.996094 96.703125 C 202.996094 95.648438 203.847656 94.800781 204.902344 94.800781 C 205.957031 94.800781 206.808594 95.648438 206.808594 96.703125 C 206.808594 97.753906 205.957031 98.605469 204.902344 98.605469 Z M 211.835938 124.6875 C 210.785156 124.6875 209.929688 123.839844 209.929688 122.785156 C 209.929688 121.734375 210.78125 120.882812 211.835938 120.882812 C 212.890625 120.882812 213.742188 121.734375 213.742188 122.785156 C 213.742188 123.839844 212.890625 124.6875 211.835938 124.6875 Z M 211.835938 118.167969 C 210.785156 118.167969 209.929688 117.320312 209.929688 116.265625 C 209.929688 115.214844 210.78125 114.363281 211.835938 114.363281 C 212.890625 114.363281 213.742188 115.214844 213.742188 116.265625 C 213.742188 117.320312 212.890625 118.167969 211.835938 118.167969 Z M 211.835938 111.648438 C 210.785156 111.648438 209.929688 110.796875 209.929688 109.746094 C 209.929688 108.691406 210.78125 107.84375 211.835938 107.84375 C 212.890625 107.84375 213.742188 108.691406 213.742188 109.746094 C 213.742188 110.796875 212.890625 111.648438 211.835938 111.648438 Z M 211.835938 105.125 C 210.785156 105.125 209.929688 104.273438 209.929688 103.222656 C 209.929688 102.167969 210.78125 101.320312 211.835938 101.320312 C 212.890625 101.320312 213.742188 102.167969 213.742188 103.222656 C 213.742188 104.273438 212.890625 105.125 211.835938 105.125 Z M 211.871094 98.605469 C 210.820312 98.605469 209.964844 97.753906 209.964844 96.703125 C 209.964844 95.648438 210.820312 94.800781 211.871094 94.800781 C 212.925781 94.800781 213.777344 95.648438 213.777344 96.703125 C 213.777344 97.753906 212.925781 98.605469 211.871094 98.605469 Z M 218.84375 111.648438 C 217.792969 111.648438 216.9375 110.796875 216.9375 109.746094 C 216.9375 108.691406 217.789062 107.84375 218.84375 107.84375 C 219.898438 107.84375 220.75 108.691406 220.75 109.746094 C 220.75 110.796875 219.898438 111.648438 218.84375 111.648438 Z M 218.84375 105.125 C 217.792969 105.125 216.9375 104.273438 216.9375 103.222656 C 216.9375 102.167969 217.789062 101.320312 218.84375 101.320312 C 219.898438 101.320312 220.75 102.167969 220.75 103.222656 C 220.75 104.273438 219.898438 105.125 218.84375 105.125 Z M 218.84375 98.605469 C 217.792969 98.605469 216.9375 97.753906 216.9375 96.703125 C 216.9375 95.648438 217.789062 94.800781 218.84375 94.800781 C 219.898438 94.800781 220.75 95.648438 220.75 96.703125 C 220.75 97.753906 219.898438 98.605469 218.84375 98.605469 Z M 218.84375 98.605469 "/></g><g style="fill:#242424;fill-opacity:1;"><g transform="translate(124.932729, 271.934397)"><path style="stroke:none" d="M 25.140625 -6.625 C 27.117188 -6.625 28.992188 -7.003906 30.765625 -7.765625 C 32.535156 -8.535156 34.0625 -9.554688 35.34375 -10.828125 L 40.421875 -5.703125 C 38.484375 -3.753906 36.203125 -2.210938 33.578125 -1.078125 C 30.960938 0.0546875 28.148438 0.625 25.140625 0.625 C 22.160156 0.625 19.347656 0.109375 16.703125 -0.921875 C 14.066406 -1.953125 11.757812 -3.445312 9.78125 -5.40625 C 7.800781 -7.375 6.242188 -9.726562 5.109375 -12.46875 C 3.972656 -15.21875 3.40625 -18.285156 3.40625 -21.671875 C 3.40625 -26.046875 4.332031 -29.90625 6.1875 -33.25 C 8.039062 -36.59375 10.609375 -39.210938 13.890625 -41.109375 C 17.171875 -43.003906 20.921875 -43.953125 25.140625 -43.953125 C 28.148438 -43.953125 30.960938 -43.382812 33.578125 -42.25 C 36.203125 -41.113281 38.484375 -39.554688 40.421875 -37.578125 L 35.34375 -32.5 C 34.0625 -33.820312 32.535156 -34.851562 30.765625 -35.59375 C 28.992188 -36.332031 27.117188 -36.703125 25.140625 -36.703125 C 22.160156 -36.703125 19.597656 -36.050781 17.453125 -34.75 C 15.304688 -33.457031 13.65625 -31.6875 12.5 -29.4375 C 11.34375 -27.1875 10.765625 -24.597656 10.765625 -21.671875 C 10.765625 -18.578125 11.40625 -15.90625 12.6875 -13.65625 C 13.96875 -11.40625 15.703125 -9.671875 17.890625 -8.453125 C 20.078125 -7.234375 22.492188 -6.625 25.140625 -6.625 Z M 25.140625 -6.625 "/></g></g><g style="fill:#242424;fill-opacity:1;"><g transform="translate(167.898413, 271.934397)"><path style="stroke:none" d="M 19.3125 -43.328125 C 19.3125 -43.328125 19.660156 -43.304688 20.359375 -43.265625 C 21.066406 -43.222656 21.96875 -43.085938 23.0625 -42.859375 C 24.15625 -42.640625 25.3125 -42.269531 26.53125 -41.75 C 27.75 -41.238281 28.90625 -40.519531 30 -39.59375 C 31.09375 -38.664062 31.988281 -37.476562 32.6875 -36.03125 C 33.382812 -34.582031 33.734375 -32.804688 33.734375 -30.703125 C 33.734375 -28.597656 33.382812 -26.820312 32.6875 -25.375 C 31.988281 -23.9375 31.09375 -22.75 30 -21.8125 C 28.90625 -20.882812 27.75 -20.160156 26.53125 -19.640625 C 25.3125 -19.128906 24.15625 -18.757812 23.0625 -18.53125 C 21.96875 -18.3125 21.066406 -18.179688 20.359375 -18.140625 C 19.660156 -18.097656 19.3125 -18.078125 19.3125 -18.078125 L 12.140625 -18.078125 L 12.140625 0 L 4.890625 0 L 4.890625 -25.25 L 11.765625 -25.25 L 4.890625 -36.09375 L 4.890625 -43.328125 Z M 20.25 -25.3125 C 20.90625 -25.394531 21.726562 -25.59375 22.71875 -25.90625 C 23.707031 -26.21875 24.59375 -26.742188 25.375 -27.484375 C 26.164062 -28.222656 26.5625 -29.296875 26.5625 -30.703125 C 26.5625 -32.066406 26.195312 -33.109375 25.46875 -33.828125 C 24.75 -34.554688 23.90625 -35.082031 22.9375 -35.40625 C 21.96875 -35.738281 21.117188 -35.9375 20.390625 -36 C 19.671875 -36.0625 19.3125 -36.09375 19.3125 -36.09375 L 13.5 -36.09375 Z M 20.25 -25.3125 "/></g></g><g style="fill:#242424;fill-opacity:1;"><g transform="translate(203.992069, 271.934397)"><path style="stroke:none" d="M 24.890625 -5.015625 L 9.65625 -5.015625 L 7.796875 0 L 0 0 L 17.265625 -44.578125 L 34.609375 0 L 26.8125 0 Z M 12.015625 -11.265625 L 22.53125 -11.265625 L 17.265625 -26.3125 Z M 12.015625 -11.265625 "/></g></g><g style="fill:#6cace3;fill-opacity:0.4;"><g transform="translate(56.962299, 290.84257)"><path style="stroke:none" d="M 4.40625 0.171875 C 3.613281 0.171875 2.921875 0.03125 2.328125 -0.25 C 1.734375 -0.539062 1.269531 -0.945312 0.9375 -1.46875 C 0.613281 -1.988281 0.453125 -2.585938 0.453125 -3.265625 C 0.453125 -4.160156 0.65625 -4.957031 1.0625 -5.65625 C 1.476562 -6.351562 2.054688 -6.894531 2.796875 -7.28125 C 3.535156 -7.675781 4.375 -7.875 5.3125 -7.875 C 6.050781 -7.875 6.707031 -7.738281 7.28125 -7.46875 C 7.851562 -7.207031 8.28125 -6.832031 8.5625 -6.34375 L 6.6875 -4.875 C 6.34375 -5.476562 5.828125 -5.78125 5.140625 -5.78125 C 4.742188 -5.78125 4.382812 -5.679688 4.0625 -5.484375 C 3.75 -5.285156 3.503906 -5.003906 3.328125 -4.640625 C 3.148438 -4.285156 3.0625 -3.882812 3.0625 -3.4375 C 3.0625 -2.976562 3.207031 -2.609375 3.5 -2.328125 C 3.789062 -2.054688 4.175781 -1.921875 4.65625 -1.921875 C 5.300781 -1.921875 5.875 -2.21875 6.375 -2.8125 L 7.890625 -1.359375 C 7.453125 -0.804688 6.945312 -0.410156 6.375 -0.171875 C 5.800781 0.0546875 5.144531 0.171875 4.40625 0.171875 Z M 4.40625 0.171875 "/></g></g><g style="fill:#6cace3;fill-opacity:0.4;"><g transform="translate(69.49652, 290.84257)"><path style="stroke:none" d="M 1.5625 -7.703125 L 4.15625 -7.703125 L 2.625 0 L 0.015625 0 Z M 1.5625 -7.703125 "/></g></g><g style="fill:#6cace3;fill-opacity:0.4;"><g transform="translate(77.699793, 290.84257)"><path style="stroke:none" d="M 8.21875 -5.171875 C 8.21875 -4.484375 8.035156 -3.882812 7.671875 -3.375 C 7.304688 -2.875 6.796875 -2.5 6.140625 -2.25 L 7.421875 0 L 4.734375 0 L 3.640625 -1.9375 L 3 -1.9375 L 2.625 0 L 0.015625 0 L 1.5625 -7.703125 L 5.015625 -7.703125 C 6.023438 -7.703125 6.8125 -7.476562 7.375 -7.03125 C 7.9375 -6.59375 8.21875 -5.972656 8.21875 -5.171875 Z M 5.59375 -4.921875 C 5.59375 -5.441406 5.269531 -5.703125 4.625 -5.703125 L 3.75 -5.703125 L 3.390625 -3.890625 L 4.453125 -3.890625 C 4.816406 -3.890625 5.097656 -3.976562 5.296875 -4.15625 C 5.492188 -4.34375 5.59375 -4.597656 5.59375 -4.921875 Z M 5.59375 -4.921875 "/></g></g><g style="fill:#6cace3;fill-opacity:0.4;"><g transform="translate(90.245001, 290.84257)"><path style="stroke:none" d="M 4.40625 0.171875 C 3.613281 0.171875 2.921875 0.03125 2.328125 -0.25 C 1.734375 -0.539062 1.269531 -0.945312 0.9375 -1.46875 C 0.613281 -1.988281 0.453125 -2.585938 0.453125 -3.265625 C 0.453125 -4.160156 0.65625 -4.957031 1.0625 -5.65625 C 1.476562 -6.351562 2.054688 -6.894531 2.796875 -7.28125 C 3.535156 -7.675781 4.375 -7.875 5.3125 -7.875 C 6.050781 -7.875 6.707031 -7.738281 7.28125 -7.46875 C 7.851562 -7.207031 8.28125 -6.832031 8.5625 -6.34375 L 6.6875 -4.875 C 6.34375 -5.476562 5.828125 -5.78125 5.140625 -5.78125 C 4.742188 -5.78125 4.382812 -5.679688 4.0625 -5.484375 C 3.75 -5.285156 3.503906 -5.003906 3.328125 -4.640625 C 3.148438 -4.285156 3.0625 -3.882812 3.0625 -3.4375 C 3.0625 -2.976562 3.207031 -2.609375 3.5 -2.328125 C 3.789062 -2.054688 4.175781 -1.921875 4.65625 -1.921875 C 5.300781 -1.921875 5.875 -2.21875 6.375 -2.8125 L 7.890625 -1.359375 C 7.453125 -0.804688 6.945312 -0.410156 6.375 -0.171875 C 5.800781 0.0546875 5.144531 0.171875 4.40625 0.171875 Z M 4.40625 0.171875 "/></g></g><g style="fill:#6cace3;fill-opacity:0.4;"><g transform="translate(102.779221, 290.84257)"><path style="stroke:none" d="M 3.90625 0.171875 C 3.21875 0.171875 2.617188 0.0546875 2.109375 -0.171875 C 1.609375 -0.398438 1.222656 -0.726562 0.953125 -1.15625 C 0.691406 -1.582031 0.5625 -2.082031 0.5625 -2.65625 C 0.5625 -2.882812 0.59375 -3.15625 0.65625 -3.46875 L 1.5 -7.703125 L 4.09375 -7.703125 L 3.25 -3.515625 C 3.207031 -3.304688 3.1875 -3.117188 3.1875 -2.953125 C 3.1875 -2.609375 3.273438 -2.347656 3.453125 -2.171875 C 3.628906 -2.003906 3.882812 -1.921875 4.21875 -1.921875 C 4.601562 -1.921875 4.898438 -2.039062 5.109375 -2.28125 C 5.328125 -2.53125 5.492188 -2.941406 5.609375 -3.515625 L 6.453125 -7.703125 L 9 -7.703125 L 8.125 -3.359375 C 7.894531 -2.191406 7.425781 -1.3125 6.71875 -0.71875 C 6.019531 -0.125 5.082031 0.171875 3.90625 0.171875 Z M 3.90625 0.171875 "/></g></g><g style="fill:#6cace3;fill-opacity:0.4;"><g transform="translate(115.753124, 290.84257)"><path style="stroke:none" d="M 1.5625 -7.703125 L 4.15625 -7.703125 L 2.625 0 L 0.015625 0 Z M 1.5625 -7.703125 "/></g></g><g style="fill:#6cace3;fill-opacity:0.4;"><g transform="translate(123.956397, 290.84257)"><path style="stroke:none" d="M 2.828125 -5.6875 L 0.578125 -5.6875 L 0.984375 -7.703125 L 8.078125 -7.703125 L 7.671875 -5.6875 L 5.421875 -5.6875 L 4.296875 0 L 1.6875 0 Z M 2.828125 -5.6875 "/></g></g><g style="fill:#6cace3;fill-opacity:0.4;"><g transform="translate(135.501311, 290.84257)"><path style="stroke:none" d="M 4.359375 0.171875 C 3.566406 0.171875 2.875 0.03125 2.28125 -0.25 C 1.695312 -0.539062 1.242188 -0.945312 0.921875 -1.46875 C 0.609375 -1.988281 0.453125 -2.585938 0.453125 -3.265625 C 0.453125 -4.160156 0.65625 -4.957031 1.0625 -5.65625 C 1.476562 -6.351562 2.054688 -6.894531 2.796875 -7.28125 C 3.535156 -7.675781 4.367188 -7.875 5.296875 -7.875 C 6.085938 -7.875 6.773438 -7.726562 7.359375 -7.4375 C 7.953125 -7.144531 8.40625 -6.738281 8.71875 -6.21875 C 9.039062 -5.695312 9.203125 -5.101562 9.203125 -4.4375 C 9.203125 -3.539062 8.992188 -2.738281 8.578125 -2.03125 C 8.171875 -1.332031 7.597656 -0.789062 6.859375 -0.40625 C 6.117188 -0.0195312 5.285156 0.171875 4.359375 0.171875 Z M 4.578125 -1.921875 C 4.984375 -1.921875 5.335938 -2.023438 5.640625 -2.234375 C 5.953125 -2.453125 6.1875 -2.738281 6.34375 -3.09375 C 6.507812 -3.457031 6.59375 -3.851562 6.59375 -4.28125 C 6.59375 -4.738281 6.457031 -5.101562 6.1875 -5.375 C 5.914062 -5.644531 5.546875 -5.78125 5.078125 -5.78125 C 4.671875 -5.78125 4.3125 -5.671875 4 -5.453125 C 3.695312 -5.242188 3.460938 -4.957031 3.296875 -4.59375 C 3.140625 -4.238281 3.0625 -3.847656 3.0625 -3.421875 C 3.0625 -2.960938 3.195312 -2.597656 3.46875 -2.328125 C 3.738281 -2.054688 4.109375 -1.921875 4.578125 -1.921875 Z M 4.578125 -1.921875 "/></g></g><g style="fill:#6cace3;fill-opacity:0.4;"><g transform="translate(149.178716, 290.84257)"><path style="stroke:none" d=""/></g></g><g style="fill:#6cace3;fill-opacity:0.4;"><g transform="translate(156.832387, 290.84257)"><path style="stroke:none" d="M 4.984375 -7.703125 C 6.003906 -7.703125 6.796875 -7.476562 7.359375 -7.03125 C 7.929688 -6.582031 8.21875 -5.953125 8.21875 -5.140625 C 8.21875 -4.503906 8.054688 -3.9375 7.734375 -3.4375 C 7.421875 -2.945312 6.96875 -2.566406 6.375 -2.296875 C 5.78125 -2.023438 5.097656 -1.890625 4.328125 -1.890625 L 2.984375 -1.890625 L 2.625 0 L 0.015625 0 L 1.5625 -7.703125 Z M 4.453125 -3.890625 C 4.816406 -3.890625 5.097656 -3.976562 5.296875 -4.15625 C 5.492188 -4.34375 5.59375 -4.597656 5.59375 -4.921875 C 5.59375 -5.441406 5.269531 -5.703125 4.625 -5.703125 L 3.75 -5.703125 L 3.390625 -3.890625 Z M 4.453125 -3.890625 "/></g></g><g style="fill:#6cace3;fill-opacity:0.4;"><g transform="translate(169.35561, 290.84257)"><path style="stroke:none" d="M 5.625 -1.34375 L 2.6875 -1.34375 L 1.921875 0 L -0.8125 0 L 4.09375 -7.703125 L 6.640625 -7.703125 L 8.46875 0 L 5.890625 0 Z M 5.265625 -3.21875 L 4.890625 -5.1875 L 3.765625 -3.21875 Z M 5.265625 -3.21875 "/></g></g><g style="fill:#6cace3;fill-opacity:0.4;"><g transform="translate(182.571349, 290.84257)"><path style="stroke:none" d="M 1.5625 -7.703125 L 5.03125 -7.703125 C 5.84375 -7.703125 6.539062 -7.566406 7.125 -7.296875 C 7.71875 -7.035156 8.171875 -6.660156 8.484375 -6.171875 C 8.804688 -5.679688 8.96875 -5.101562 8.96875 -4.4375 C 8.96875 -3.550781 8.757812 -2.769531 8.34375 -2.09375 C 7.9375 -1.425781 7.367188 -0.910156 6.640625 -0.546875 C 5.910156 -0.179688 5.078125 0 4.140625 0 L 0.015625 0 Z M 4.234375 -2.03125 C 4.898438 -2.03125 5.414062 -2.238281 5.78125 -2.65625 C 6.15625 -3.070312 6.34375 -3.613281 6.34375 -4.28125 C 6.34375 -4.726562 6.203125 -5.070312 5.921875 -5.3125 C 5.648438 -5.550781 5.253906 -5.671875 4.734375 -5.671875 L 3.75 -5.671875 L 3.03125 -2.03125 Z M 4.234375 -2.03125 "/></g></g><g style="fill:#6cace3;fill-opacity:0.4;"><g transform="translate(196.00693, 290.84257)"><path style="stroke:none" d="M 3.71875 -5.734375 L 3.546875 -4.84375 L 6.796875 -4.84375 L 6.421875 -2.96875 L 3.15625 -2.96875 L 2.953125 -1.953125 L 6.8125 -1.953125 L 6.421875 0 L 0.015625 0 L 1.5625 -7.703125 L 7.828125 -7.703125 L 7.421875 -5.734375 Z M 3.71875 -5.734375 "/></g></g><g style="fill:#6cace3;fill-opacity:0.4;"><g transform="translate(207.760698, 290.84257)"><path style="stroke:none" d="M 1.5625 -7.703125 L 4.15625 -7.703125 L 3.03125 -2.015625 L 6.5 -2.015625 L 6.09375 0 L 0.015625 0 Z M 1.5625 -7.703125 "/></g></g><g style="fill:#6cace3;fill-opacity:0.4;"><g transform="translate(218.8989, 290.84257)"><path style="stroke:none" d=""/></g></g><g style="fill:#6cace3;fill-opacity:0.4;"><g transform="translate(226.55257, 290.84257)"><path style="stroke:none" d="M 5.625 -1.34375 L 2.6875 -1.34375 L 1.921875 0 L -0.8125 0 L 4.09375 -7.703125 L 6.640625 -7.703125 L 8.46875 0 L 5.890625 0 Z M 5.265625 -3.21875 L 4.890625 -5.1875 L 3.765625 -3.21875 Z M 5.265625 -3.21875 "/></g></g><g style="fill:#6cace3;fill-opacity:0.4;"><g transform="translate(239.76831, 290.84257)"><path style="stroke:none" d="M 10.78125 -7.703125 L 9.265625 0 L 6.890625 0 L 7.578125 -3.515625 L 5.40625 -0.6875 L 4.265625 -0.6875 L 3.078125 -3.46875 L 2.390625 0 L 0.015625 0 L 1.5625 -7.703125 L 3.671875 -7.703125 L 5.34375 -3.609375 L 8.5625 -7.703125 Z M 10.78125 -7.703125 "/></g></g><g style="fill:#6cace3;fill-opacity:0.4;"><g transform="translate(254.610907, 290.84257)"><path style="stroke:none" d="M 5.625 -1.34375 L 2.6875 -1.34375 L 1.921875 0 L -0.8125 0 L 4.09375 -7.703125 L 6.640625 -7.703125 L 8.46875 0 L 5.890625 0 Z M 5.265625 -3.21875 L 4.890625 -5.1875 L 3.765625 -3.21875 Z M 5.265625 -3.21875 "/></g></g><g style="fill:#6cace3;fill-opacity:0.4;"><g transform="translate(267.826635, 290.84257)"><path style="stroke:none" d="M 2.828125 -5.6875 L 0.578125 -5.6875 L 0.984375 -7.703125 L 8.078125 -7.703125 L 7.671875 -5.6875 L 5.421875 -5.6875 L 4.296875 0 L 1.6875 0 Z M 2.828125 -5.6875 "/></g></g><g style="fill:#6cace3;fill-opacity:0.4;"><g transform="translate(279.371549, 290.84257)"><path style="stroke:none" d="M 3.71875 -5.734375 L 3.546875 -4.84375 L 6.796875 -4.84375 L 6.421875 -2.96875 L 3.15625 -2.96875 L 2.953125 -1.953125 L 6.8125 -1.953125 L 6.421875 0 L 0.015625 0 L 1.5625 -7.703125 L 7.828125 -7.703125 L 7.421875 -5.734375 Z M 3.71875 -5.734375 "/></g></g><g style="fill:#6cace3;fill-opacity:0.4;"><g transform="translate(291.125317, 290.84257)"><path style="stroke:none" d="M 3.90625 0.171875 C 3.21875 0.171875 2.617188 0.0546875 2.109375 -0.171875 C 1.609375 -0.398438 1.222656 -0.726562 0.953125 -1.15625 C 0.691406 -1.582031 0.5625 -2.082031 0.5625 -2.65625 C 0.5625 -2.882812 0.59375 -3.15625 0.65625 -3.46875 L 1.5 -7.703125 L 4.09375 -7.703125 L 3.25 -3.515625 C 3.207031 -3.304688 3.1875 -3.117188 3.1875 -2.953125 C 3.1875 -2.609375 3.273438 -2.347656 3.453125 -2.171875 C 3.628906 -2.003906 3.882812 -1.921875 4.21875 -1.921875 C 4.601562 -1.921875 4.898438 -2.039062 5.109375 -2.28125 C 5.328125 -2.53125 5.492188 -2.941406 5.609375 -3.515625 L 6.453125 -7.703125 L 9 -7.703125 L 8.125 -3.359375 C 7.894531 -2.191406 7.425781 -1.3125 6.71875 -0.71875 C 6.019531 -0.125 5.082031 0.171875 3.90625 0.171875 Z M 3.90625 0.171875 "/></g></g><g style="fill:#6cace3;fill-opacity:0.4;"><g transform="translate(304.099231, 290.84257)"><path style="stroke:none" d="M 8.21875 -5.171875 C 8.21875 -4.484375 8.035156 -3.882812 7.671875 -3.375 C 7.304688 -2.875 6.796875 -2.5 6.140625 -2.25 L 7.421875 0 L 4.734375 0 L 3.640625 -1.9375 L 3 -1.9375 L 2.625 0 L 0.015625 0 L 1.5625 -7.703125 L 5.015625 -7.703125 C 6.023438 -7.703125 6.8125 -7.476562 7.375 -7.03125 C 7.9375 -6.59375 8.21875 -5.972656 8.21875 -5.171875 Z M 5.59375 -4.921875 C 5.59375 -5.441406 5.269531 -5.703125 4.625 -5.703125 L 3.75 -5.703125 L 3.390625 -3.890625 L 4.453125 -3.890625 C 4.816406 -3.890625 5.097656 -3.976562 5.296875 -4.15625 C 5.492188 -4.34375 5.59375 -4.597656 5.59375 -4.921875 Z M 5.59375 -4.921875 "/></g></g><g style="fill:#004aad;fill-opacity:1;"><g transform="translate(56.962299, 290.84257)"><path style="stroke:none" d="M 4.40625 0.171875 C 3.613281 0.171875 2.921875 0.03125 2.328125 -0.25 C 1.734375 -0.539062 1.269531 -0.945312 0.9375 -1.46875 C 0.613281 -1.988281 0.453125 -2.585938 0.453125 -3.265625 C 0.453125 -4.160156 0.65625 -4.957031 1.0625 -5.65625 C 1.476562 -6.351562 2.054688 -6.894531 2.796875 -7.28125 C 3.535156 -7.675781 4.375 -7.875 5.3125 -7.875 C 6.050781 -7.875 6.707031 -7.738281 7.28125 -7.46875 C 7.851562 -7.207031 8.28125 -6.832031 8.5625 -6.34375 L 6.6875 -4.875 C 6.34375 -5.476562 5.828125 -5.78125 5.140625 -5.78125 C 4.742188 -5.78125 4.382812 -5.679688 4.0625 -5.484375 C 3.75 -5.285156 3.503906 -5.003906 3.328125 -4.640625 C 3.148438 -4.285156 3.0625 -3.882812 3.0625 -3.4375 C 3.0625 -2.976562 3.207031 -2.609375 3.5 -2.328125 C 3.789062 -2.054688 4.175781 -1.921875 4.65625 -1.921875 C 5.300781 -1.921875 5.875 -2.21875 6.375 -2.8125 L 7.890625 -1.359375 C 7.453125 -0.804688 6.945312 -0.410156 6.375 -0.171875 C 5.800781 0.0546875 5.144531 0.171875 4.40625 0.171875 Z M 4.40625 0.171875 "/></g></g><g style="fill:#004aad;fill-opacity:1;"><g transform="translate(69.49652, 290.84257)"><path style="stroke:none" d="M 1.5625 -7.703125 L 4.15625 -7.703125 L 2.625 0 L 0.015625 0 Z M 1.5625 -7.703125 "/></g></g><g style="fill:#004aad;fill-opacity:1;"><g transform="translate(77.699793, 290.84257)"><path style="stroke:none" d="M 8.21875 -5.171875 C 8.21875 -4.484375 8.035156 -3.882812 7.671875 -3.375 C 7.304688 -2.875 6.796875 -2.5 6.140625 -2.25 L 7.421875 0 L 4.734375 0 L 3.640625 -1.9375 L 3 -1.9375 L 2.625 0 L 0.015625 0 L 1.5625 -7.703125 L 5.015625 -7.703125 C 6.023438 -7.703125 6.8125 -7.476562 7.375 -7.03125 C 7.9375 -6.59375 8.21875 -5.972656 8.21875 -5.171875 Z M 5.59375 -4.921875 C 5.59375 -5.441406 5.269531 -5.703125 4.625 -5.703125 L 3.75 -5.703125 L 3.390625 -3.890625 L 4.453125 -3.890625 C 4.816406 -3.890625 5.097656 -3.976562 5.296875 -4.15625 C 5.492188 -4.34375 5.59375 -4.597656 5.59375 -4.921875 Z M 5.59375 -4.921875 "/></g></g><g style="fill:#004aad;fill-opacity:1;"><g transform="translate(90.245001, 290.84257)"><path style="stroke:none" d="M 4.40625 0.171875 C 3.613281 0.171875 2.921875 0.03125 2.328125 -0.25 C 1.734375 -0.539062 1.269531 -0.945312 0.9375 -1.46875 C 0.613281 -1.988281 0.453125 -2.585938 0.453125 -3.265625 C 0.453125 -4.160156 0.65625 -4.957031 1.0625 -5.65625 C 1.476562 -6.351562 2.054688 -6.894531 2.796875 -7.28125 C 3.535156 -7.675781 4.375 -7.875 5.3125 -7.875 C 6.050781 -7.875 6.707031 -7.738281 7.28125 -7.46875 C 7.851562 -7.207031 8.28125 -6.832031 8.5625 -6.34375 L 6.6875 -4.875 C 6.34375 -5.476562 5.828125 -5.78125 5.140625 -5.78125 C 4.742188 -5.78125 4.382812 -5.679688 4.0625 -5.484375 C 3.75 -5.285156 3.503906 -5.003906 3.328125 -4.640625 C 3.148438 -4.285156 3.0625 -3.882812 3.0625 -3.4375 C 3.0625 -2.976562 3.207031 -2.609375 3.5 -2.328125 C 3.789062 -2.054688 4.175781 -1.921875 4.65625 -1.921875 C 5.300781 -1.921875 5.875 -2.21875 6.375 -2.8125 L 7.890625 -1.359375 C 7.453125 -0.804688 6.945312 -0.410156 6.375 -0.171875 C 5.800781 0.0546875 5.144531 0.171875 4.40625 0.171875 Z M 4.40625 0.171875 "/></g></g><g style="fill:#004aad;fill-opacity:1;"><g transform="translate(102.779221, 290.84257)"><path style="stroke:none" d="M 3.90625 0.171875 C 3.21875 0.171875 2.617188 0.0546875 2.109375 -0.171875 C 1.609375 -0.398438 1.222656 -0.726562 0.953125 -1.15625 C 0.691406 -1.582031 0.5625 -2.082031 0.5625 -2.65625 C 0.5625 -2.882812 0.59375 -3.15625 0.65625 -3.46875 L 1.5 -7.703125 L 4.09375 -7.703125 L 3.25 -3.515625 C 3.207031 -3.304688 3.1875 -3.117188 3.1875 -2.953125 C 3.1875 -2.609375 3.273438 -2.347656 3.453125 -2.171875 C 3.628906 -2.003906 3.882812 -1.921875 4.21875 -1.921875 C 4.601562 -1.921875 4.898438 -2.039062 5.109375 -2.28125 C 5.328125 -2.53125 5.492188 -2.941406 5.609375 -3.515625 L 6.453125 -7.703125 L 9 -7.703125 L 8.125 -3.359375 C 7.894531 -2.191406 7.425781 -1.3125 6.71875 -0.71875 C 6.019531 -0.125 5.082031 0.171875 3.90625 0.171875 Z M 3.90625 0.171875 "/></g></g><g style="fill:#004aad;fill-opacity:1;"><g transform="translate(115.753124, 290.84257)"><path style="stroke:none" d="M 1.5625 -7.703125 L 4.15625 -7.703125 L 2.625 0 L 0.015625 0 Z M 1.5625 -7.703125 "/></g></g><g style="fill:#004aad;fill-opacity:1;"><g transform="translate(123.956397, 290.84257)"><path style="stroke:none" d="M 2.828125 -5.6875 L 0.578125 -5.6875 L 0.984375 -7.703125 L 8.078125 -7.703125 L 7.671875 -5.6875 L 5.421875 -5.6875 L 4.296875 0 L 1.6875 0 Z M 2.828125 -5.6875 "/></g></g><g style="fill:#004aad;fill-opacity:1;"><g transform="translate(135.501311, 290.84257)"><path style="stroke:none" d="M 4.359375 0.171875 C 3.566406 0.171875 2.875 0.03125 2.28125 -0.25 C 1.695312 -0.539062 1.242188 -0.945312 0.921875 -1.46875 C 0.609375 -1.988281 0.453125 -2.585938 0.453125 -3.265625 C 0.453125 -4.160156 0.65625 -4.957031 1.0625 -5.65625 C 1.476562 -6.351562 2.054688 -6.894531 2.796875 -7.28125 C 3.535156 -7.675781 4.367188 -7.875 5.296875 -7.875 C 6.085938 -7.875 6.773438 -7.726562 7.359375 -7.4375 C 7.953125 -7.144531 8.40625 -6.738281 8.71875 -6.21875 C 9.039062 -5.695312 9.203125 -5.101562 9.203125 -4.4375 C 9.203125 -3.539062 8.992188 -2.738281 8.578125 -2.03125 C 8.171875 -1.332031 7.597656 -0.789062 6.859375 -0.40625 C 6.117188 -0.0195312 5.285156 0.171875 4.359375 0.171875 Z M 4.578125 -1.921875 C 4.984375 -1.921875 5.335938 -2.023438 5.640625 -2.234375 C 5.953125 -2.453125 6.1875 -2.738281 6.34375 -3.09375 C 6.507812 -3.457031 6.59375 -3.851562 6.59375 -4.28125 C 6.59375 -4.738281 6.457031 -5.101562 6.1875 -5.375 C 5.914062 -5.644531 5.546875 -5.78125 5.078125 -5.78125 C 4.671875 -5.78125 4.3125 -5.671875 4 -5.453125 C 3.695312 -5.242188 3.460938 -4.957031 3.296875 -4.59375 C 3.140625 -4.238281 3.0625 -3.847656 3.0625 -3.421875 C 3.0625 -2.960938 3.195312 -2.597656 3.46875 -2.328125 C 3.738281 -2.054688 4.109375 -1.921875 4.578125 -1.921875 Z M 4.578125 -1.921875 "/></g></g><g style="fill:#004aad;fill-opacity:1;"><g transform="translate(149.178716, 290.84257)"><path style="stroke:none" d=""/></g></g><g style="fill:#004aad;fill-opacity:1;"><g transform="translate(156.832387, 290.84257)"><path style="stroke:none" d="M 4.984375 -7.703125 C 6.003906 -7.703125 6.796875 -7.476562 7.359375 -7.03125 C 7.929688 -6.582031 8.21875 -5.953125 8.21875 -5.140625 C 8.21875 -4.503906 8.054688 -3.9375 7.734375 -3.4375 C 7.421875 -2.945312 6.96875 -2.566406 6.375 -2.296875 C 5.78125 -2.023438 5.097656 -1.890625 4.328125 -1.890625 L 2.984375 -1.890625 L 2.625 0 L 0.015625 0 L 1.5625 -7.703125 Z M 4.453125 -3.890625 C 4.816406 -3.890625 5.097656 -3.976562 5.296875 -4.15625 C 5.492188 -4.34375 5.59375 -4.597656 5.59375 -4.921875 C 5.59375 -5.441406 5.269531 -5.703125 4.625 -5.703125 L 3.75 -5.703125 L 3.390625 -3.890625 Z M 4.453125 -3.890625 "/></g></g><g style="fill:#004aad;fill-opacity:1;"><g transform="translate(169.35561, 290.84257)"><path style="stroke:none" d="M 5.625 -1.34375 L 2.6875 -1.34375 L 1.921875 0 L -0.8125 0 L 4.09375 -7.703125 L 6.640625 -7.703125 L 8.46875 0 L 5.890625 0 Z M 5.265625 -3.21875 L 4.890625 -5.1875 L 3.765625 -3.21875 Z M 5.265625 -3.21875 "/></g></g><g style="fill:#004aad;fill-opacity:1;"><g transform="translate(182.571349, 290.84257)"><path style="stroke:none" d="M 1.5625 -7.703125 L 5.03125 -7.703125 C 5.84375 -7.703125 6.539062 -7.566406 7.125 -7.296875 C 7.71875 -7.035156 8.171875 -6.660156 8.484375 -6.171875 C 8.804688 -5.679688 8.96875 -5.101562 8.96875 -4.4375 C 8.96875 -3.550781 8.757812 -2.769531 8.34375 -2.09375 C 7.9375 -1.425781 7.367188 -0.910156 6.640625 -0.546875 C 5.910156 -0.179688 5.078125 0 4.140625 0 L 0.015625 0 Z M 4.234375 -2.03125 C 4.898438 -2.03125 5.414062 -2.238281 5.78125 -2.65625 C 6.15625 -3.070312 6.34375 -3.613281 6.34375 -4.28125 C 6.34375 -4.726562 6.203125 -5.070312 5.921875 -5.3125 C 5.648438 -5.550781 5.253906 -5.671875 4.734375 -5.671875 L 3.75 -5.671875 L 3.03125 -2.03125 Z M 4.234375 -2.03125 "/></g></g><g style="fill:#004aad;fill-opacity:1;"><g transform="translate(196.00693, 290.84257)"><path style="stroke:none" d="M 3.71875 -5.734375 L 3.546875 -4.84375 L 6.796875 -4.84375 L 6.421875 -2.96875 L 3.15625 -2.96875 L 2.953125 -1.953125 L 6.8125 -1.953125 L 6.421875 0 L 0.015625 0 L 1.5625 -7.703125 L 7.828125 -7.703125 L 7.421875 -5.734375 Z M 3.71875 -5.734375 "/></g></g><g style="fill:#004aad;fill-opacity:1;"><g transform="translate(207.760698, 290.84257)"><path style="stroke:none" d="M 1.5625 -7.703125 L 4.15625 -7.703125 L 3.03125 -2.015625 L 6.5 -2.015625 L 6.09375 0 L 0.015625 0 Z M 1.5625 -7.703125 "/></g></g><g style="fill:#004aad;fill-opacity:1;"><g transform="translate(218.8989, 290.84257)"><path style="stroke:none" d=""/></g></g><g style="fill:#004aad;fill-opacity:1;"><g transform="translate(226.55257, 290.84257)"><path style="stroke:none" d="M 5.625 -1.34375 L 2.6875 -1.34375 L 1.921875 0 L -0.8125 0 L 4.09375 -7.703125 L 6.640625 -7.703125 L 8.46875 0 L 5.890625 0 Z M 5.265625 -3.21875 L 4.890625 -5.1875 L 3.765625 -3.21875 Z M 5.265625 -3.21875 "/></g></g><g style="fill:#004aad;fill-opacity:1;"><g transform="translate(239.76831, 290.84257)"><path style="stroke:none" d="M 10.78125 -7.703125 L 9.265625 0 L 6.890625 0 L 7.578125 -3.515625 L 5.40625 -0.6875 L 4.265625 -0.6875 L 3.078125 -3.46875 L 2.390625 0 L 0.015625 0 L 1.5625 -7.703125 L 3.671875 -7.703125 L 5.34375 -3.609375 L 8.5625 -7.703125 Z M 10.78125 -7.703125 "/></g></g><g style="fill:#004aad;fill-opacity:1;"><g transform="translate(254.610907, 290.84257)"><path style="stroke:none" d="M 5.625 -1.34375 L 2.6875 -1.34375 L 1.921875 0 L -0.8125 0 L 4.09375 -7.703125 L 6.640625 -7.703125 L 8.46875 0 L 5.890625 0 Z M 5.265625 -3.21875 L 4.890625 -5.1875 L 3.765625 -3.21875 Z M 5.265625 -3.21875 "/></g></g><g style="fill:#004aad;fill-opacity:1;"><g transform="translate(267.826635, 290.84257)"><path style="stroke:none" d="M 2.828125 -5.6875 L 0.578125 -5.6875 L 0.984375 -7.703125 L 8.078125 -7.703125 L 7.671875 -5.6875 L 5.421875 -5.6875 L 4.296875 0 L 1.6875 0 Z M 2.828125 -5.6875 "/></g></g><g style="fill:#004aad;fill-opacity:1;"><g transform="translate(279.371549, 290.84257)"><path style="stroke:none" d="M 3.71875 -5.734375 L 3.546875 -4.84375 L 6.796875 -4.84375 L 6.421875 -2.96875 L 3.15625 -2.96875 L 2.953125 -1.953125 L 6.8125 -1.953125 L 6.421875 0 L 0.015625 0 L 1.5625 -7.703125 L 7.828125 -7.703125 L 7.421875 -5.734375 Z M 3.71875 -5.734375 "/></g></g><g style="fill:#004aad;fill-opacity:1;"><g transform="translate(291.125317, 290.84257)"><path style="stroke:none" d="M 3.90625 0.171875 C 3.21875 0.171875 2.617188 0.0546875 2.109375 -0.171875 C 1.609375 -0.398438 1.222656 -0.726562 0.953125 -1.15625 C 0.691406 -1.582031 0.5625 -2.082031 0.5625 -2.65625 C 0.5625 -2.882812 0.59375 -3.15625 0.65625 -3.46875 L 1.5 -7.703125 L 4.09375 -7.703125 L 3.25 -3.515625 C 3.207031 -3.304688 3.1875 -3.117188 3.1875 -2.953125 C 3.1875 -2.609375 3.273438 -2.347656 3.453125 -2.171875 C 3.628906 -2.003906 3.882812 -1.921875 4.21875 -1.921875 C 4.601562 -1.921875 4.898438 -2.039062 5.109375 -2.28125 C 5.328125 -2.53125 5.492188 -2.941406 5.609375 -3.515625 L 6.453125 -7.703125 L 9 -7.703125 L 8.125 -3.359375 C 7.894531 -2.191406 7.425781 -1.3125 6.71875 -0.71875 C 6.019531 -0.125 5.082031 0.171875 3.90625 0.171875 Z M 3.90625 0.171875 "/></g></g><g style="fill:#004aad;fill-opacity:1;"><g transform="translate(304.099231, 290.84257)"><path style="stroke:none" d="M 8.21875 -5.171875 C 8.21875 -4.484375 8.035156 -3.882812 7.671875 -3.375 C 7.304688 -2.875 6.796875 -2.5 6.140625 -2.25 L 7.421875 0 L 4.734375 0 L 3.640625 -1.9375 L 3 -1.9375 L 2.625 0 L 0.015625 0 L 1.5625 -7.703125 L 5.015625 -7.703125 C 6.023438 -7.703125 6.8125 -7.476562 7.375 -7.03125 C 7.9375 -6.59375 8.21875 -5.972656 8.21875 -5.171875 Z M 5.59375 -4.921875 C 5.59375 -5.441406 5.269531 -5.703125 4.625 -5.703125 L 3.75 -5.703125 L 3.390625 -3.890625 L 4.453125 -3.890625 C 4.816406 -3.890625 5.097656 -3.976562 5.296875 -4.15625 C 5.492188 -4.34375 5.59375 -4.597656 5.59375 -4.921875 Z M 5.59375 -4.921875 "/></g></g></g></svg>